<svg xmlns="http://www.w3.org/2000/svg" xmlns:xlink="http://www.w3.org/1999/xlink"><symbol id="sprite-arrow-down" fill="currentColor" viewBox="0 0 12 12"><path d="m11.46 8.18-5.46-4.9-5.45 4.9"/></symbol><use xlink:href="#sprite-arrow-down" width="12" height="12"/><view id="sprite-arrow-down-view" viewBox="0 0 12 12"/><symbol id="sprite-arrow" fill="currentColor" viewBox="0 0 10 10"><g clip-path="url(#a)"><path d="m1 9 8-8m0 0h-7.95m7.95 0v7.95"/></g><defs><clipPath id="a"><path d="M0 0h10v10h-10z"/></clipPath></defs></symbol><use xlink:href="#sprite-arrow" width="10" height="10" y="12"/><view id="sprite-arrow-view" viewBox="0 12 10 10"/><symbol id="sprite-check" fill="none" viewBox="0 0 10 8"><path d="m1 3.5 2.95 3.5 5.05-6"/></symbol><use xlink:href="#sprite-check" width="10" height="8" y="22"/><view id="sprite-check-view" viewBox="0 22 10 8"/><symbol id="sprite-cross" fill="currentColor" viewBox="0 0 18 18"><path d="m1 17 8-8m0 0 8-8m-8 8 8 8m-8-8-8-8"/></symbol><use xlink:href="#sprite-cross" width="18" height="18" y="30"/><view id="sprite-cross-view" viewBox="0 30 18 18"/><symbol id="sprite-logotype" viewBox="0 0 30 30"><path fill="#316DC2" d="M.92 8.8c-.85.6-1.35 1.9-.41 3.43s14.38 11.9 14.88 12.2.98.33 2.24-.68 11.74-8.88 12-9.12c.44-.38.54-1.3 0-1.73 0 0-12.7 9.5-13.11 9.89s-1.06-.24-.94-1.06.2-.9 1.82-2.16l11.18-8.48c.47-.35.48-.96-.3-1.5l-13.01-9.27c-.4-.3-.93-.55-1.73.02-.81.58-11.06 7.35-12.62 8.46"/><path fill="#316DC2" d="M15.39 25.43c-.33-.19-6.23-4.71-10.51-8.24v7.35c0 5.37 15.12 8.24 20.13 1.64v-7.03a778 778 0 0 0-7.38 5.61c-1.26 1-1.75.96-2.24.67"/><path fill="#98B8E6" d="M21.79 17.37s2.24 1.13 2.4 5.68l-1.09-.3-.87 1.85c-.37-4.98-2.37-5.7-2.37-5.7z"/></symbol><use xlink:href="#sprite-logotype" width="30" height="30" y="48"/><view id="sprite-logotype-view" viewBox="0 48 30 30"/><symbol id="sprite-menu" fill="currentColor" viewBox="0 0 20 20"><path d="M1 6h18m-18 4h18m-18 4h18"/></symbol><use xlink:href="#sprite-menu" width="20" height="20" y="78"/><view id="sprite-menu-view" viewBox="0 78 20 20"/><symbol id="sprite-ok" fill="currentColor" viewBox="0 0 16 16"><path d="M8 2.42c.96 0 1.74.77 1.74 1.71s-.78 1.7-1.74 1.7-1.74-.76-1.74-1.7.78-1.71 1.74-1.71m0 5.84a4.2 4.2 0 0 0 4.21-4.13c0-2.28-1.89-4.13-4.21-4.13s-4.21 1.85-4.21 4.13a4.17 4.17 0 0 0 4.2 4.13m1.71 3.37a8 8 0 0 0 2.45-1c.57-.35.75-1.1.39-1.66a1.25 1.25 0 0 0-1.7-.38 5.4 5.4 0 0 1-5.68 0 1.24 1.24 0 0 0-1.7.38 1.2 1.2 0 0 0 .39 1.66 8 8 0 0 0 2.44 1l-2.35 2.3a1.2 1.2 0 0 0 0 1.71 1.25 1.25 0 0 0 1.75 0l2.31-2.26 2.32 2.26c.48.48 1.25.48 1.74 0a1.2 1.2 0 0 0 0-1.7z"/></symbol><use xlink:href="#sprite-ok" width="16" height="16" y="98"/><view id="sprite-ok-view" viewBox="0 98 16 16"/><symbol id="sprite-reddit" fill="currentColor" viewBox="0 0 16 16"><path d="M9.41.36c-.46 0-.9.25-1.18.61q-.4.56-.55 1.26c-.18.74-.23 1.56-.25 2.3-1.3.09-2.5.5-3.48 1.13-.4-.36-.88-.55-1.34-.55-.53 0-1.03.25-1.4.73-.71.94-.63 2.47.2 3.37a5 5 0 0 0-.1.86c0 3.08 3 5.57 6.69 5.57s6.68-2.5 6.68-5.57q0-.44-.08-.86c.82-.9.9-2.43.2-3.37a1.7 1.7 0 0 0-1.4-.73c-.47 0-.95.2-1.35.55a7.4 7.4 0 0 0-3.47-1.13c.02-.69.07-1.4.2-1.93q.13-.5.28-.7c.1-.14.18-.2.35-.2.38 0 .43.13.66.44q.15.25.46.55c.21.19.53.35.87.35v-1.34c-.1 0-.12 0-.18-.06s-.15-.2-.28-.38c-.26-.35-.77-.9-1.52-.9m3.67.13c-.88 0-1.59.84-1.59 1.88s.71 1.88 1.6 1.88c.87 0 1.59-.84 1.59-1.88s-.72-1.88-1.6-1.88m0 .67c.57 0 1.03.54 1.03 1.21s-.46 1.21-1.03 1.21-1.02-.54-1.02-1.2c0-.68.46-1.22 1.02-1.22m-5.09 4.41c3.13 0 5.78 2.07 5.78 4.5s-2.65 4.5-5.78 4.5-5.78-2.06-5.78-4.5 2.65-4.5 5.78-4.5m-5.38.61q.24 0 .48.13a6 6 0 0 0-1.33 1.75c-.2-.51-.15-1.16.11-1.5a.9.9 0 0 1 .74-.38m10.76 0a.9.9 0 0 1 .74.38c.26.34.32.99.1 1.5a6 6 0 0 0-1.32-1.76q.24-.12.48-.12m-7.64 1.67c-.57 0-1.03.55-1.03 1.22s.46 1.21 1.03 1.21 1.02-.54 1.02-1.21-.46-1.22-1.02-1.22m4.53 0c-.57 0-1.03.55-1.03 1.22s.46 1.21 1.03 1.21 1.02-.54 1.02-1.21-.46-1.22-1.02-1.22m-5.08 4.13a3.1 3.1 0 0 0 2.81 1.73c1.34 0 2.47-.85 2.83-1.74-.65.5-1.68.84-2.83.84s-2.15-.34-2.81-.84"/></symbol><use xlink:href="#sprite-reddit" width="16" height="16" y="114"/><view id="sprite-reddit-view" viewBox="0 114 16 16"/><symbol id="sprite-vk" fill="currentColor" viewBox="0 0 16 16"><path d="M15.86 11.42c-.05-.07-.31-.62-1.6-1.76-1.33-1.19-1.15-1 .46-3.05q1.46-1.87 1.25-2.34c-.11-.31-.84-.23-.84-.23l-2.4.01s-.18-.02-.3.05a1 1 0 0 0-.22.25s-.38.97-.9 1.8c-1.06 1.73-1.5 1.82-1.67 1.72-.4-.25-.3-1.01-.3-1.55 0-1.69.27-2.4-.52-2.57-.26-.06-.46-.1-1.13-.11-.85-.01-1.58 0-2 .2-.27.12-.48.4-.35.42.16.02.52.1.71.35.25.32.24 1.04.24 1.04s.14 1.98-.33 2.23c-.32.17-.77-.18-1.72-1.76-.5-.8-.87-1.7-.87-1.7s-.07-.17-.2-.25a1 1 0 0 0-.36-.15l-2.29.02s-.34 0-.47.15c-.11.13 0 .39 0 .39s1.78 4 3.81 6.02c1.86 1.85 3.97 1.73 3.97 1.73h.95s.3-.03.44-.19c.14-.14.13-.4.13-.4s-.02-1.22.58-1.4c.59-.18 1.34 1.18 2.14 1.7.6.4 1.06.31 1.06.31l2.14-.02s1.12-.07.59-.9"/></symbol><use xlink:href="#sprite-vk" width="16" height="16" y="130"/><view id="sprite-vk-view" viewBox="0 130 16 16"/></svg>